# xmcd
#
# Track frame offsets: 
#        150
#        13950
#        24049
#        33609
#        45665
#        57035
#        68890
#        81669
#        95217
#        107164
#        116246
#        127618
#        141083
#        152561
#        163127
#        175118
#        188878
#        202394
#        212960
#        225669
#        239346
#        253040
#        265196
#        278145
#        290806
#
# Disc length: 4045 seconds
#
# Revision: 0
# Processed by: cddbd v1.5.2PL0 Copyright (c) Steve Scherf et al.
# Submitted via: ExactAudioCopy v1.3
#
DISCID=7b0fcb19
DTITLE=Various Artist - Greatest Hits - Blues [CD6)
DYEAR=2009
DGENRE=Blues
TTITLE0=B.B. King - You Upset Me Baby
TTITLE1=James Brown - Chonnie-On-Chon
TTITLE2=James Reed - You Better Hold Him
TTITLE3=T-Bone Walker - Tell Me What's The Reason
TTITLE4=Bo Diddley - Say Boss Man
TTITLE5=Billie Holiday - My Man
TTITLE6=Bobby "Blue" Bland - Time Out
TTITLE7=John Lee Hooker - I Met The Grindin´ Man
TTITLE8=Johnny "Guitar" Watson - You Can't Take It With You
TTITLE9=Matt Cockrell - Baby Please
TTITLE10=Muddy Waters - Sugar Sweet
TTITLE11=Muddy Waters - Rollin' And Tumblin'
TTITLE12=James Brown - You're Mine, You're Mine
TTITLE13=Ray Charles - Blackjack
TTITLE14=T-Bone Walker - You Don't Understand
TTITLE15=John Lee Hooker - Tease Me Baby
TTITLE16=Julia Lee and Her Boy Friends - Don't Come Too Soon
TTITLE17=Jimmy Reed - Baby What You Want Me To Do
TTITLE18=Clarence Samuels - Lollypop Mama
TTITLE19=Floyd Dixon - Empty Stockings Blues
TTITLE20=Jesse Price - My Baby Done Left Me
TTITLE21=Laura Rucker - Cryin' The Blues
TTITLE22=Jimmy Rogers - Luedella
TTITLE23=Floyd Dixon - You Played Me For A Fool
TTITLE24=Robert Nighthawk - My Sweet Lovin' Woman
EXTD=
EXTT0=
EXTT1=
EXTT2=
EXTT3=
EXTT4=
EXTT5=
EXTT6=
EXTT7=
EXTT8=
EXTT9=
EXTT10=
EXTT11=
EXTT12=
EXTT13=
EXTT14=
EXTT15=
EXTT16=
EXTT17=
EXTT18=
EXTT19=
EXTT20=
EXTT21=
EXTT22=
EXTT23=
EXTT24=
PLAYORDER=
